<svg xmlns="http://www.w3.org/2000/svg" width="480" height="176" viewBox="0 0 480 176" role="img" aria-label="Permission approval: Deny, Approve, Always">
  <defs>
    <linearGradient id="panel" x1="0" y1="0" x2="0" y2="1">
      <stop offset="0%" stop-color="#16181d"/>
      <stop offset="100%" stop-color="#111317"/>
    </linearGradient>
    <linearGradient id="approve" x1="0" y1="0" x2="1" y2="1">
      <stop offset="0%" stop-color="#b6f0c9"/>
      <stop offset="100%" stop-color="#9ee9b8"/>
    </linearGradient>
    <linearGradient id="always" x1="0" y1="0" x2="1" y2="1">
      <stop offset="0%" stop-color="#7cd7f2"/>
      <stop offset="100%" stop-color="#6fdcff"/>
    </linearGradient>
  </defs>
  <rect width="480" height="176" rx="12" fill="url(#panel)" stroke="rgba(255,255,255,0.08)"/>
  <rect x="16" y="14" width="52" height="24" rx="8" fill="rgba(255,129,117,0.18)" stroke="rgba(255,129,117,0.35)"/>
  <rect x="24" y="20" width="10" height="10" rx="2" fill="#ff8175"/>
  <circle cx="58" cy="18" r="6" fill="#ffc857"/>
  <text x="36" y="40" text-anchor="middle" fill="#6d6b64" font-family="system-ui,sans-serif" font-size="7">Claude</text>
  <rect x="74" y="14" width="52" height="24" rx="8" fill="rgba(255,255,255,0.04)" stroke="rgba(255,255,255,0.08)"/>
  <rect x="82" y="20" width="10" height="10" rx="2" fill="#6fdcff"/>
  <text x="94" y="40" text-anchor="middle" fill="#6d6b64" font-family="system-ui,sans-serif" font-size="7">Codex</text>
  <rect x="132" y="14" width="52" height="24" rx="8" fill="rgba(255,255,255,0.04)" stroke="rgba(255,255,255,0.08)"/>
  <rect x="140" y="20" width="10" height="10" rx="2" fill="#b2ea7e"/>
  <text x="152" y="40" text-anchor="middle" fill="#6d6b64" font-family="system-ui,sans-serif" font-size="7">Gemini</text>
  <rect x="16" y="48" width="448" height="68" rx="10" fill="rgba(255,255,255,0.03)" stroke="rgba(255,255,255,0.07)"/>
  <rect x="28" y="58" width="14" height="14" rx="3" fill="#ff8175"/>
  <rect x="30" y="60" width="4" height="4" fill="#fff" opacity="0.9"/>
  <rect x="36" y="60" width="4" height="4" fill="#fff" opacity="0.9"/>
  <text x="50" y="69" fill="#b7b4ac" font-family="system-ui,sans-serif" font-size="9" font-weight="600" letter-spacing="0.05em">COMMAND REQUEST</text>
  <rect x="388" y="56" width="62" height="18" rx="9" fill="rgba(255,129,117,0.12)" stroke="rgba(255,129,117,0.25)"/>
  <text x="419" y="69" text-anchor="middle" fill="#ff8175" font-family="system-ui,sans-serif" font-size="9" font-weight="600">Claude</text>
  <rect x="28" y="78" width="424" height="26" rx="6" fill="rgba(0,0,0,0.25)"/>
  <rect x="28" y="78" width="3" height="26" rx="1.5" fill="#9ee9b8"/>
  <text x="40" y="95" fill="#f7f4ee" font-family="ui-monospace,monospace" font-size="10">$ npm test --run</text>
  <text x="28" y="112" fill="#6d6b64" font-family="system-ui,sans-serif" font-size="8">~/code/my-app</text>
  <rect x="16" y="128" width="136" height="34" rx="10" fill="rgba(120,46,41,0.45)" stroke="rgba(255,129,117,0.22)"/>
  <text x="68" y="149" text-anchor="middle" fill="#ffcbc5" font-family="system-ui,sans-serif" font-size="11" font-weight="600">Deny</text>
  <rect x="108" y="138" width="22" height="14" rx="4" fill="rgba(0,0,0,0.18)"/>
  <text x="119" y="148" text-anchor="middle" fill="#ffcbc5" font-family="ui-monospace,monospace" font-size="8">Del</text>
  <rect x="160" y="128" width="152" height="34" rx="10" fill="url(#approve)"/>
  <text x="228" y="149" text-anchor="middle" fill="#06160c" font-family="system-ui,sans-serif" font-size="11" font-weight="700">Approve</text>
  <rect x="268" y="138" width="22" height="14" rx="4" fill="rgba(0,0,0,0.12)"/>
  <text x="279" y="148" text-anchor="middle" fill="#06160c" font-family="ui-monospace,monospace" font-size="8">&#8629;</text>
  <rect x="320" y="128" width="144" height="34" rx="10" fill="url(#always)"/>
  <text x="384" y="149" text-anchor="middle" fill="#06160c" font-family="system-ui,sans-serif" font-size="11" font-weight="700">Always</text>
  <rect x="420" y="138" width="28" height="14" rx="4" fill="rgba(0,0,0,0.12)"/>
  <text x="434" y="148" text-anchor="middle" fill="#06160c" font-family="ui-monospace,monospace" font-size="8">&#8679;&#8629;</text>
</svg>
