<svg xmlns="http://www.w3.org/2000/svg" width="72" height="81" viewBox="-16 -36 96 108" role="img" aria-label="Working">
  <rect x="20" y="44" width="6" height="12" fill="#2A8FA8"/>
  <rect x="38" y="44" width="6" height="12" fill="#2A8FA8"/>
  <rect x="8" y="18" width="48" height="26" fill="#38BDD8"/>
  <rect x="8" y="18" width="48" height="5" fill="#5FD8EC"/>
  <rect x="19" y="24" width="5" height="11" fill="#1a1a1a"/>
  <rect x="38" y="24" width="5" height="11" fill="#1a1a1a"/>
  <rect x="14" y="58" width="36" height="3" fill="#5A5A6A"/>
  <rect x="16" y="61" width="3" height="7" fill="#4A4A5A"/>
  <rect x="45" y="61" width="3" height="7" fill="#4A4A5A"/>
  <rect x="18" y="40" width="28" height="18" fill="#2A2A3A"/>
  <rect x="20" y="42" width="24" height="14" fill="#0D1117"/>
  <rect x="22" y="45" width="10" height="1.5" fill="#6BE088"/>
  <rect x="22" y="48" width="16" height="1.5" fill="#68B8F8"/>
  <rect x="22" y="51" width="8" height="1.5" fill="#F8C868"/>
  <rect x="16" y="56" width="32" height="2" fill="#3A3A4A"/>
  <rect x="18" y="57" width="5" height="2" fill="#6A6A7A"/>
  <rect x="24" y="57" width="5" height="2" fill="#6A6A7A"/>
  <rect x="30" y="57" width="5" height="2" fill="#6A6A7A"/>
  <rect x="36" y="57" width="5" height="2" fill="#6A6A7A"/>
  <rect x="42" y="57" width="5" height="2" fill="#6A6A7A"/>
</svg>
